<svg width="601" height="0.5" viewBox="0 0 601 1" fill="none" xmlns="http://www.w3.org/2000/svg">
<path d="M324.219 1H336.819" stroke="#1E1E1E"/>
<path d="M406.133 1H418.733" stroke="#1E1E1E"/>
<path d="M345.227 1H357.827" stroke="#1E1E1E"/>
<path d="M427.125 1H439.726" stroke="#1E1E1E"/>
<path d="M366.219 1H378.819" stroke="#1E1E1E"/>
<path d="M385.125 1H397.726" stroke="#1E1E1E"/>
<path d="M445.812 1H458.413" stroke="#1E1E1E"/>
<path d="M527.727 1H540.327" stroke="#1E1E1E"/>
<path d="M466.82 1H479.421" stroke="#1E1E1E"/>
<path d="M548.719 1H561.319" stroke="#1E1E1E"/>
<path d="M487.812 1H500.413" stroke="#1E1E1E"/>
<path d="M506.719 1H519.319" stroke="#1E1E1E"/>
<path d="M567.391 1H579.991" stroke="#1E1E1E"/>
<path d="M0 1H12.6005" stroke="#1E1E1E"/>
<path d="M81.9141 1H94.5146" stroke="#1E1E1E"/>
<path d="M21.0078 1H33.6083" stroke="#1E1E1E"/>
<path d="M102.906 1H115.507" stroke="#1E1E1E"/>
<path d="M42 1H54.6005" stroke="#1E1E1E"/>
<path d="M60.9062 1H73.5068" stroke="#1E1E1E"/>
<path d="M101.32 1H113.921" stroke="#1E1E1E"/>
<path d="M183.234 1H195.835" stroke="#1E1E1E"/>
<path d="M122.328 1H134.929" stroke="#1E1E1E"/>
<path d="M204.227 1H216.827" stroke="#1E1E1E"/>
<path d="M143.32 1H155.921" stroke="#1E1E1E"/>
<path d="M162.227 1H174.827" stroke="#1E1E1E"/>
<path d="M222.898 1H235.499" stroke="#1E1E1E"/>
<path d="M304.812 1H317.413" stroke="#1E1E1E"/>
<path d="M243.906 1H256.507" stroke="#1E1E1E"/>
<path d="M325.805 1H338.405" stroke="#1E1E1E"/>
<path d="M264.898 1H277.499" stroke="#1E1E1E"/>
<path d="M283.805 1H296.405" stroke="#1E1E1E"/>
<path d="M588.398 1H600.999" stroke="#1E1E1E"/>
</svg>
