<svg width="405" height="29" viewBox="0 0 405 29" fill="none" xmlns="http://www.w3.org/2000/svg">
<g clip-path="url(#clip0_3160_804)">
<path d="M96.2364 16.2C99.7608 14.992 101.968 12.093 101.968 8.24222C101.968 3.54766 98.0874 0.390625 92.2839 0.390625H81.7826V28.6305H85.5215V16.7841H92.5704L98.6578 28.6305H102.823L96.2364 16.2ZM92.5335 13.8169H85.5215V3.47432H92.4992C95.8812 3.47432 98.1234 5.49158 98.1234 8.53558C98.1225 11.7263 95.8804 13.8169 92.5335 13.8169ZM163.833 25.5563V28.6374H145.248V0.397534H163.404V3.47864H148.986V12.5382H162.122V15.6555H148.986V25.5563H163.833ZM217.558 0.397534H213.322L203.069 28.6374H206.878L209.299 21.6693H221.403L223.788 28.6374H227.809L217.558 0.397534ZM210.367 18.552L215.313 4.24481H215.384L220.297 18.5485L210.367 18.552ZM334.225 0.0308388C326.465 0.0308388 321.232 5.82549 321.232 14.5175C321.232 23.2094 326.465 29.0041 334.225 29.0041C342.022 29.0041 347.22 23.2094 347.22 14.5175C347.22 5.82549 342.02 0.0265205 334.223 0.0265205L334.225 0.0308388ZM334.225 25.8134C328.743 25.8134 325.076 21.3026 325.076 14.5175C325.076 7.73231 328.743 3.22152 334.225 3.22152C339.744 3.22152 343.411 7.73317 343.411 14.5175C343.411 21.3018 339.742 25.8091 334.223 25.8091L334.225 25.8134ZM404.999 0.397534V28.6374H401.439L387.804 6.48554H387.733L387.839 28.6374H384.244V0.397534H387.839L401.475 22.5856H401.546L401.475 0.397534H404.999ZM28.0884 0.397534V28.6374H24.3503L24.4567 5.01875H24.3864L15.3081 28.6374H12.1748L3.52444 5.01445H3.45325L3.52444 28.6331H0V0.393216H5.19956L13.8113 24.0895H13.9177L22.8888 0.397534H28.0884ZM51.3616 26.6935C51.3616 25.3363 52.2829 24.42 53.6758 24.42C55.0997 24.42 55.99 25.3363 55.99 26.6935C55.99 28.0869 55.0997 29.0041 53.6758 29.0041C52.2855 28.9998 51.3599 28.0826 51.3599 26.6892L51.3616 26.6935ZM265.996 7.4122C266.326 2.54593 270.558 -0.384181 276.524 0.0454999C280.986 0.366466 284.27 2.92126 285.424 6.73316L281.864 7.53904C281.138 5.0688 279.063 3.42686 276.168 3.21806C272.51 2.95922 269.97 4.64688 269.779 7.42687C269.558 10.6831 272.85 11.6184 276.504 12.47C281.104 13.5735 286.321 15.0524 285.907 21.162C285.559 26.2836 281.028 29.4131 274.564 28.948C269.745 28.6029 266.189 25.8902 264.962 21.8669L268.598 21.2138C269.45 23.8117 271.713 25.5442 274.852 25.7703C278.971 26.0671 281.878 24.2543 282.084 21.2172C282.345 17.376 278.734 16.4174 274.943 15.483C270.515 14.426 265.614 13.005 265.995 7.40789L265.996 7.4122Z" fill="black"/>
</g>
<defs>
<clipPath id="clip0_3160_804">
<rect width="405" height="29" fill="white"/>
</clipPath>
</defs>
</svg>
