<svg width="25" height="19" viewBox="0 0 25 19" fill="none" xmlns="http://www.w3.org/2000/svg">
<path d="M0 8.99268H4" stroke="#1E1E1E" stroke-width="0.8"/>
<path d="M0 13.9927H6" stroke="#1E1E1E" stroke-width="0.8"/>
<path d="M0 3.99268L5 3.99268" stroke="#1E1E1E" stroke-width="0.8"/>
<path d="M23.7787 17.4857L19.1402 12.8472C18.7755 13.3175 18.3531 13.7399 17.8828 14.1045L22.5214 18.7431C22.6891 18.9052 22.9137 18.995 23.147 18.993C23.3802 18.991 23.6033 18.8975 23.7682 18.7326C23.9332 18.5677 24.0267 18.3445 24.0286 18.1113C24.0306 17.8781 23.9409 17.6534 23.7787 17.4857Z" fill="#1E1E1E"/>
<path d="M13.3336 15.6672C17.3838 15.6672 20.6672 12.3838 20.6672 8.33359C20.6672 4.28336 17.3838 1 13.3336 1C9.28336 1 6 4.28336 6 8.33359C6 12.3838 9.28336 15.6672 13.3336 15.6672Z" stroke="#1E1E1E" stroke-width="0.8" stroke-miterlimit="10"/>
</svg>
