<svg width="25" height="21" viewBox="0 0 25 21" fill="none" xmlns="http://www.w3.org/2000/svg">
<path d="M24 18.9861L22.4014 15.1163C23.3468 13.7351 23.8875 12.1365 23.8875 10.4341C23.8875 5.18742 18.7637 0.933594 12.4438 0.933594C6.12384 0.933594 1 5.18742 1 10.4341C1 15.6808 6.12384 19.9336 12.4438 19.9336C15.1269 19.9336 17.5965 19.1657 19.548 17.8786L24 18.9861Z" stroke="#1E1E1E" stroke-width="0.8" stroke-miterlimit="10"/>
<path d="M12.5008 12.0314C13.3426 12.0314 14.0251 11.3162 14.0251 10.4339C14.0251 9.55164 13.3426 8.83643 12.5008 8.83643C11.659 8.83643 10.9766 9.55164 10.9766 10.4339C10.9766 11.3162 11.659 12.0314 12.5008 12.0314Z" fill="#1E1E1E"/>
<path d="M16.7352 12.0314C17.577 12.0314 18.2594 11.3162 18.2594 10.4339C18.2594 9.55164 17.577 8.83643 16.7352 8.83643C15.8934 8.83643 15.2109 9.55164 15.2109 10.4339C15.2109 11.3162 15.8934 12.0314 16.7352 12.0314Z" fill="#1E1E1E"/>
<path d="M8.26644 12.0314C9.10826 12.0314 9.79069 11.3162 9.79069 10.4339C9.79069 9.55164 9.10826 8.83643 8.26644 8.83643C7.42462 8.83643 6.74219 9.55164 6.74219 10.4339C6.74219 11.3162 7.42462 12.0314 8.26644 12.0314Z" fill="#1E1E1E"/>
</svg>
